<?xml version="1.0" encoding="UTF-8" standalone="no"?>
<svg viewBox="0 0 329 62" xmlns="http://www.w3.org/2000/svg">
  <g>
    <mask class="fill-white" id="bottom-nav-mask">
      <path d="M163.997 31C180.667 31 194.182 17.5685 194.182 1H298C314.569 1 328 14.4315 328 31C328 47.5685 314.569 61 298 61H31C14.4315 61 1 47.5685 1 31C1 14.4315 14.4315 1 31 1H133.812C133.812 17.5685 147.326 31 163.997 31Z" />
    </mask>
    <path class="fill-neutral-100" d="M163.997 31C180.667 31 194.182 17.5685 194.182 1H298C314.569 1 328 14.4315 328 31C328 47.5685 314.569 61 298 61H31C14.4315 61 1 47.5685 1 31C1 14.4315 14.4315 1 31 1H133.812C133.812 17.5685 147.326 31 163.997 31Z" opacity="0.97" />
    <path d="M194.182 1V0H193.182V1H194.182ZM133.812 1H134.812V0H133.812V1ZM193.182 1C193.182 17.0105 180.121 30 163.997 30V32C181.214 32 195.182 18.1266 195.182 1H193.182ZM194.182 2H298V0H194.182V2ZM298 2C314.016 2 327 14.9837 327 31H329C329 13.8792 315.121 0 298 0V2ZM327 31C327 47.0163 314.016 60 298 60V62C315.121 62 329 48.1208 329 31H327ZM298 60H31V62H298V60ZM31 60C14.9837 60 2 47.0163 2 31H0C0 48.1208 13.8792 62 31 62V60ZM2 31C2 14.9837 14.9837 2 31 2V0C13.8792 0 0 13.8792 0 31H2ZM31 2H133.812V0H31V2ZM163.997 30C147.873 30 134.812 17.0105 134.812 1H132.812C132.812 18.1266 146.78 32 163.997 32V30Z" class="fill-neutral-300" mask="url(#bottom-nav-mask)" />
  </g>
</svg>
