<?xml version="1.0" encoding="UTF-8" standalone="no"?>
<!-- Created with Inkscape (http://www.inkscape.org/) -->

<svg
   width="200mm"
   height="200mm"
   viewBox="0 0 200 200"
   version="1.1"
   id="svg5"
   xml:space="preserve"
   inkscape:version="1.2.2 (b0a8486541, 2022-12-01)"
   sodipodi:docname="gibber.svg"
   xmlns:inkscape="http://www.inkscape.org/namespaces/inkscape"
   xmlns:sodipodi="http://sodipodi.sourceforge.net/DTD/sodipodi-0.dtd"
   xmlns="http://www.w3.org/2000/svg"
   xmlns:svg="http://www.w3.org/2000/svg"><sodipodi:namedview
     id="namedview7"
     pagecolor="#ffffff"
     bordercolor="#666666"
     borderopacity="1.0"
     inkscape:showpageshadow="2"
     inkscape:pageopacity="0.0"
     inkscape:pagecheckerboard="0"
     inkscape:deskcolor="#d1d1d1"
     inkscape:document-units="mm"
     showgrid="false"
     inkscape:lockguides="true"
     inkscape:zoom="0.5"
     inkscape:cx="162"
     inkscape:cy="60"
     inkscape:window-width="1896"
     inkscape:window-height="1037"
     inkscape:window-x="10"
     inkscape:window-y="29"
     inkscape:window-maximized="1"
     inkscape:current-layer="g2622" /><defs
     id="defs2" /><g
     inkscape:label="Layer 1"
     inkscape:groupmode="layer"
     id="layer1"><g
       id="g2622"
       style="stroke-width:0.677333"
       transform="matrix(1.4763781,0,0,1.4763781,-55.98338,-51.547623)"
       inkscape:label="Logo"><path
         style="fill:none;stroke:#000000;stroke-width:0.677333;stroke-linecap:round;stroke-linejoin:round;stroke-dasharray:none;stroke-opacity:1"
         d="M 80.052083,84.981333 67.332584,72.688368 h 5.596298 z"
         id="path1882"
         sodipodi:nodetypes="cccc"
         inkscape:label="Speech Angle" /><rect
         style="fill:none;fill-opacity:1;stroke:#000000;stroke-width:0.677333;stroke-linecap:round;stroke-linejoin:round;stroke-miterlimit:0;stroke-dasharray:none"
         id="rect1884"
         width="47.134129"
         height="22.424137"
         x="40.508202"
         y="50.24715"
         ry="5.8672585"
         inkscape:label="Speech Bubble"
         rx="3.5696604" /><g
         id="g2606"
         transform="matrix(0.83321888,0,0,0.83321888,9.2441802,12.004312)"
         style="stroke-width:0.812911"
         inkscape:label="Text"><g
           aria-label="BLAH "
           id="text2494"
           style="font-size:7.16844px;line-height:1.25;stroke-width:0.0461621"
           inkscape:label="First"
           transform="matrix(3.1558997,0,0,3.1558997,-91.754685,-112.71743)"><path
             d="m 45.42984,56.511866 q -0.255515,0.203013 -0.665041,0.31502 -0.409525,0.112006 -1.008061,0.112006 -0.595037,0 -1.267078,-0.108506 v -4.613283 q 0.679041,-0.108507 1.176072,-0.108507 0.500531,0 0.81905,0.09451 0.32202,0.09451 0.525032,0.255515 0.399025,0.31152 0.399025,0.80855 0,0.49353 -0.360522,0.81905 0.427026,0.133009 0.66154,0.504031 0.213513,0.332521 0.213513,0.738546 0,0.402524 -0.119007,0.689542 -0.115507,0.287018 -0.374523,0.49353 z m -2.012623,-2.555157 q 0.147009,0.0245 0.367522,0.0245 0.220514,0 0.360522,-0.056 0.143509,-0.0595 0.220514,-0.147009 0.126008,-0.143508 0.126008,-0.399024 0,-0.535533 -0.630039,-0.535533 -0.266016,0 -0.444527,0.021 z m 0.518031,0.749046 q -0.294018,0 -0.518031,0.0385 v 1.375584 q 0.245015,0.063 0.514531,0.063 0.269517,0 0.472529,-0.063 0.206513,-0.0665 0.346522,-0.178511 0.283517,-0.231014 0.283517,-0.588036 0,-0.64754 -1.099068,-0.64754 z"
             style="font-family:'Hammersmith One';-inkscape-font-specification:'Hammersmith One';stroke-width:0.0461621"
             id="path2669" /><path
             d="m 47.361959,56.851387 q -0.514532,0 -0.682542,0.021 V 52.1751 q 0.084,0.021 0.346521,0.021 0.266016,0 0.616038,-0.014 v 3.829234 h 0.724544 q 0.315019,0 0.504031,-0.021 -0.0245,0.81905 -0.0245,0.850552 v 0.035 q -0.343021,-0.0245 -1.151571,-0.0245 z"
             style="font-family:'Hammersmith One';-inkscape-font-specification:'Hammersmith One';stroke-width:0.0461621"
             id="path2671" /><path
             d="m 50.011621,56.879389 q -0.301018,-0.028 -0.703543,-0.028 h -0.276517 l 1.522594,-4.266762 q 0.101506,-0.287017 0.101506,-0.33252 0,-0.049 -0.0035,-0.0595 l 0.0035,-0.007 q 0.227514,0.0105 0.48303,0.0105 0.210012,0 0.50403,-0.007 l 0.0035,0.007 q -0.007,0.014 -0.007,0.0385 0,0.0665 0.105007,0.353521 l 1.554095,4.273763 q -0.07,-0.0035 -0.16451,-0.0035 0,0 -0.182011,-0.007 -0.08751,0 -0.15751,0 h -0.542533 l -0.32902,-1.008062 h -1.582097 z m 1.638101,-1.876115 -0.528533,-1.6276 -0.514531,1.6276 z"
             style="font-family:'Hammersmith One';-inkscape-font-specification:'Hammersmith One';stroke-width:0.0461621"
             id="path2673" /><path
             d="m 54.806915,56.872388 q -0.336021,-0.021 -0.798049,-0.021 H 53.896859 V 52.1786 q 0.217013,0.0175 0.308019,0.0175 h 0.143509 q 0.276517,0 0.458528,-0.028 v 1.865614 h 1.645101 V 52.1786 q 0.290518,0.0175 0.563534,0.0175 0.276517,0 0.346522,-0.028 v 4.704288 q -0.168011,-0.021 -0.665041,-0.021 h -0.245015 v -1.977621 h -1.645101 z"
             style="font-family:'Hammersmith One';-inkscape-font-specification:'Hammersmith One';stroke-width:0.0461621"
             id="path2675" /></g></g><g
         id="g1709"
         transform="matrix(1.5024049,0,0,1.5024049,-33.819682,-12.782993)"
         style="stroke-width:0.450833"
         inkscape:label="Gibberbird"><path
           style="fill:#fecaca;fill-opacity:1;stroke-width:0.450833"
           d="m 100.17041,111.53673 v -0.35075 l 0.59531,-0.54223 0.59532,-0.54222 0.52916,-0.27 0.52917,-0.26999 1.71979,-0.41605 1.71978,-0.41605 0.92604,-0.0746 0.92605,-0.0746 -0.084,-1.32291 -0.0841,-1.32292 -0.49879,-1.52707 -0.49879,-1.52707 -0.82763,-1.5528 -0.82764,-1.552801 -0.70618,-0.65994 -0.70619,-0.65994 -2.11666,-1.07279 -2.116666,-1.07278 -2.04088,-0.83048 -2.04089,-0.83048 -2.19245,-1.32743 -2.19245,-1.327434 -2.38125,-1.81366 -2.38125,-1.813661 -1.48471,-1.402289 -1.48471,-1.402288 -0.46724,-0.911956 -0.46723,-0.911955 0.14748,-3.189086 0.14748,-3.189086 0.52683,-2.446354 0.52683,-2.44635 0.31312,-0.948756 0.31312,-0.948754 -0.42924,-1.123952 -0.42925,-1.123956 -0.72547,-0.695047 -0.72547,-0.695047 -2.90508,-0.474432 -2.90508,-0.474435 -0.0868,-0.455221 -0.0868,-0.455221 1.21196,-1.295688 1.21197,-1.295686 1.58406,-0.844296 1.58406,-0.844293 2.1e-4,-0.447506 2e-4,-0.447506 0.75216,-1.589905 0.75217,-1.589904 0.95216,-0.836007 0.95215,-0.836007 1.66891,-0.925441 1.66891,-0.925443 1.72464,-0.178634 1.72463,-0.178633 1.54715,0.404016 1.54715,0.404019 1.44719,0.960879 1.44719,0.960882 1.63209,1.635924 1.632076,1.635921 0.95601,1.852083 0.956,1.852084 0.6807,1.852083 0.68071,1.852083 0.30046,2.116667 0.30047,2.116666 0.13899,0.587484 0.13901,0.587481 1.62692,0.945226 1.62693,0.945224 1.32292,0.805781 1.32292,0.805777 0.79375,0.727126 0.79375,0.727122 2.51354,1.864815 2.51354,1.864813 1.97661,1.773126 1.97662,1.773126 2.91818,2.19733 2.91817,2.19733 0.66146,0.715958 0.66146,0.715957 2.11667,1.595829 2.11666,1.595827 1.78594,1.74482 1.78594,1.74482 v 0.20553 0.20554 h -0.54106 -0.54106 l -2.67336,-0.66146 -2.67335,-0.66146 h -2.46332 -2.46332 l -2.06133,0.27084 -2.06133,0.27084 -1.85208,0.28696 -1.85208,0.28696 -1.63001,0.51424 -1.63,0.51423 -0.39339,0.8462 -0.39339,0.84619 -0.40496,2.248961 -0.40496,2.24895 -0.32213,2.28854 -0.32213,2.28854 0.14975,0.39024 0.14976,0.39025 1.27781,0.17257 1.27781,0.17257 1.00137,0.15002 1.00137,0.15001 0.78457,0.66017 0.78457,0.66018 v 0.39685 0.39686 l -1.52136,-0.11906 -1.52135,-0.11905 -2.5464,-0.48386 -2.54639,-0.48386 -1.55465,0.33346 -1.55464,0.33347 -0.95674,0.24594 -0.95674,0.24596 h -2.41669 -2.4167 z m 6.74687,-0.43046 1.32291,-0.29572 1.32292,-0.14771 1.32292,-0.14771 2.11666,0.44733 2.11667,0.44734 1.14882,0.13513 1.14882,0.13513 0.25911,-0.25912 0.25911,-0.25911 -0.69397,-0.54588 -0.69397,-0.54588 -1.50771,-0.17808 -1.50771,-0.17808 -0.92604,-0.18076 -0.92604,-0.18076 -0.0958,-0.65068 -0.0958,-0.65068 0.3151,-2.24896 0.3151,-2.24896 0.41989,-2.34102 0.41989,-2.341031 0.55148,-0.79822 0.55148,-0.79821 1.4552,-0.46912 1.45521,-0.46912 1.85209,-0.28799 1.85208,-0.28798 2.06133,-0.27084 2.06133,-0.27084 h 2.72889 2.7289 l 2.60387,0.64499 2.60387,0.64499 0.23742,-0.14674 0.23743,-0.14673 -1.12589,-1.14721 -1.1259,-1.1472 -1.84553,-1.40157 -1.84552,-1.401573 -1.91274,-1.719791 -1.91273,-1.719792 -2.25172,-1.653923 -2.25172,-1.653924 -1.95086,-1.753989 -1.95085,-1.753989 -1.96385,-1.486879 -1.96384,-1.486879 -0.86512,-0.661458 -0.86511,-0.661458 -0.8752,-0.701707 -0.87521,-0.701707 -0.82419,-0.488918 -0.8242,-0.488918 -1.89779,-1.160582 -1.8978,-1.160579 -0.22255,-0.426921 -0.22255,-0.426918 -0.33199,-2.38125 -0.332,-2.38125 -0.90353,-2.371561 -0.90353,-2.371563 -0.818,-1.429703 -0.81799,-1.429702 -1.427206,-1.404586 -1.4272,-1.404585 -1.39323,-0.924772 -1.39323,-0.924771 -1.65619,-0.429162 -1.65619,-0.429163 -1.63778,0.185293 -1.63779,0.185296 -0.92607,0.511572 -0.92607,0.511572 -1.24517,0.789834 -1.24519,0.789831 -0.76354,1.152734 -0.76354,1.152737 -0.45008,1.430949 -0.45009,1.430948 -1.35526,0.6125 -1.35526,0.6125 -1.30812,1.260858 -1.30812,1.260862 0.11704,0.351459 0.11703,0.351457 1.69786,0.2995 1.69786,0.299503 1.26709,0.181277 1.26709,0.181279 0.90928,1.239012 0.90927,1.239012 0.1672,0.854643 0.1672,0.854647 -0.40826,1.26202 -0.40827,1.262023 -0.44781,2.248958 -0.44782,2.248958 -0.13303,2.419861 -0.13304,2.41986 0.17839,0.950905 0.1784,0.950902 1.49238,1.611958 1.49239,1.611958 1.95742,1.499568 1.95742,1.499571 1.89652,1.254924 1.89651,1.254922 2.43226,1.19247 2.43225,1.19247 h 0.28332 0.28332 l 0.59172,0.3059 0.591716,0.30589 0.52917,0.27488 0.52916,0.27489 1.1972,0.60382 1.19719,0.60383 0.97085,0.99821 0.97084,0.998211 0.93586,1.85208 0.93586,1.85208 0.005,0.5797 0.005,0.5797 0.22728,0.14047 0.22728,0.14047 0.16942,1.44146 0.16941,1.44147 -0.16042,0.41806 -0.16042,0.41805 h -0.9026 -0.9026 l -2.023,0.54213 -2.02302,0.54213 -0.75335,0.53643 -0.75336,0.53644 0.16616,0.26884 0.16615,0.26885 2.41664,-0.13495 2.41664,-0.13495 1.32291,-0.29572 z"
           id="path1607"
           sodipodi:nodetypes="ccccccccccccccccccccccccccccccccccccccccccccccccccccccccccccccccccccccccccccccccccccccccccccccccccccccccccccccccccccccccccccccccccccccccccccccccccccccccccccccccccccccccccccccccccccccccccccccccccccccccccccccccccccccccccccccccccccccccccccccccccccccccccccccccccccccccccccccccc" /><path
           style="fill:#fca5a5;fill-opacity:1;stroke-width:0.450833"
           d="m 100.59493,111.40304 -0.16616,-0.26884 0.75336,-0.53644 0.75335,-0.53643 2.02302,-0.54213 2.02301,-0.54213 h 0.9026 0.90259 l 0.16042,-0.41805 0.16043,-0.41806 -0.16942,-1.44147 -0.16942,-1.44146 -0.22728,-0.14047 -0.22728,-0.14047 -0.005,-0.5797 -0.005,-0.5797 -0.93587,-1.85208 -0.93586,-1.85208 -0.97084,-0.998211 -0.97085,-0.99821 -1.19719,-0.60383 -1.19719,-0.60382 -0.52917,-0.27489 -0.52917,-0.27488 -0.591716,-0.30589 -0.59172,-0.3059 h -0.28332 -0.28331 l -2.43226,-1.19247 -2.43225,-1.19247 -1.89652,-1.254922 -1.89652,-1.254924 -1.95742,-1.499571 -1.95742,-1.499568 -1.49238,-1.611958 -1.49239,-1.611958 -0.17839,-0.950902 -0.17839,-0.950905 0.13303,-2.41986 0.13303,-2.419861 0.44782,-2.248958 0.44782,-2.248958 0.40826,-1.262023 0.40827,-1.26202 -0.16721,-0.854647 -0.16719,-0.854643 -0.90928,-1.239012 -0.90928,-1.239012 -1.26709,-0.181279 -1.26709,-0.181277 -1.69786,-0.299503 -1.69786,-0.2995 -0.11703,-0.351457 -0.11704,-0.351459 1.30812,-1.260862 1.30812,-1.260858 1.35526,-0.6125 1.35526,-0.6125 0.45009,-1.430948 0.45009,-1.430949 0.76354,-1.152737 0.76354,-1.152734 1.24518,-0.789831 1.24518,-0.789834 0.92607,-0.511572 0.92607,-0.511572 1.63778,-0.185296 1.63778,-0.185293 1.65619,0.429163 1.65619,0.429162 1.39323,0.924771 1.39323,0.924772 1.4272,1.404585 1.427206,1.404586 0.818,1.429702 0.81799,1.429703 0.90353,2.371563 0.90354,2.371561 0.33199,2.38125 0.33199,2.38125 0.22256,0.426918 0.22254,0.426921 1.8978,1.160579 1.8978,1.160582 0.82419,0.488918 0.82419,0.488918 0.87521,0.701707 0.8752,0.701707 0.86512,0.661458 0.86511,0.661458 1.96385,1.486879 1.96385,1.486879 1.95085,1.753989 1.95085,1.753989 2.25172,1.653924 2.25172,1.653923 1.91274,1.719792 1.91273,1.719791 1.84553,1.401573 1.84552,1.40157 1.1259,1.1472 1.12589,1.14721 -0.23742,0.14673 -0.23743,0.14674 -2.60387,-0.64499 -2.60387,-0.64499 h -2.72889 -2.7289 l -2.06133,0.27084 -2.06133,0.27084 -1.85208,0.28798 -1.85208,0.28799 -1.45521,0.46912 -1.45521,0.46912 -0.55148,0.79821 -0.55147,0.79822 -0.41989,2.341031 -0.41989,2.34102 -0.31511,2.24896 -0.3151,2.24896 0.0958,0.65068 0.0958,0.65068 0.92604,0.18076 0.92604,0.18076 1.50771,0.17808 1.50771,0.17808 0.69397,0.54588 0.69398,0.54588 -0.25912,0.25911 -0.25911,0.25912 -1.14882,-0.13513 -1.14882,-0.13513 -2.11666,-0.44734 -2.11667,-0.44733 -1.32292,0.14771 -1.32291,0.14771 -1.32292,0.29572 -1.32292,0.29572 -2.41663,0.13495 -2.41664,0.13495 -0.16616,-0.26885 z m 6.19005,-0.60666 1.45521,-0.33923 2.11667,-0.0124 2.11667,-0.0124 2.00352,0.49147 2.00352,0.49147 0.51002,-0.10372 0.51002,-0.10372 -0.66146,-0.43493 -0.66146,-0.43494 -2.09356,-0.28687 -2.09356,-0.28687 -0.35383,-0.29366 -0.35384,-0.29365 v -1.02103 -1.02102 l 0.28872,-1.92314 0.28871,-1.92314 0.37447,-2.06444 0.37446,-2.064431 0.51183,-1.00328 0.51183,-1.00327 1.53697,-0.53689 1.53697,-0.53689 1.85208,-0.29175 1.85209,-0.29175 2.06132,-0.27084 2.06133,-0.27084 h 2.9984 2.9984 l 2.08402,0.52511 2.08402,0.5251 0.25214,0.004 0.25213,0.004 -1.01686,-1.04137 -1.01687,-1.04136 -1.85121,-1.40603 -1.85121,-1.406029 -1.91273,-1.719792 -1.91274,-1.719791 -2.25172,-1.653924 -2.25172,-1.653923 -1.95085,-1.753989 -1.95085,-1.753989 -1.96385,-1.486879 -1.96385,-1.486879 -0.85663,-0.661458 -0.85663,-0.661459 -1.0666,-0.793749 -1.06661,-0.79375 -2.16399,-1.322917 -2.164,-1.322917 -0.45383,-0.419497 -0.45383,-0.419499 -0.33752,-2.490917 -0.33753,-2.49092 -1.00051,-2.672246 -1.00052,-2.672247 -0.7323,-1.164211 -0.7323,-1.164212 -1.519336,-1.467551 -1.51935,-1.467551 -1.08295,-0.750485 -1.08296,-0.750488 -1.76917,-0.490578 -1.76918,-0.490577 -1.47307,0.162338 -1.47306,0.162338 -1.5875,0.824055 -1.5875,0.824055 -1.20972,1.228532 -1.20972,1.228532 -0.54761,1.684314 -0.54761,1.684316 -1.54996,0.877022 -1.54996,0.877022 -0.99219,0.962613 -0.99219,0.962612 v 0.310833 0.310832 l 2.18282,0.319723 2.18281,0.319722 0.80489,0.244155 0.80489,0.244155 0.98105,1.489702 0.98104,1.489702 v 0.787527 0.787524 l -0.38474,1.226137 -0.38474,1.226135 -0.44447,2.248958 -0.44447,2.248958 -0.13114,2.557571 -0.13114,2.557571 0.56127,1.146596 0.56126,1.146595 1.92044,1.652257 1.92044,1.652254 1.45521,1.143061 1.45521,1.143061 2.48966,1.532056 2.48966,1.53205 2.53742,1.01255 2.537426,1.01255 1.5875,0.85049 1.5875,0.8505 0.74907,0.68875 0.74906,0.68875 0.90694,1.617161 0.90694,1.61716 0.51011,1.55784 0.51011,1.55784 0.18284,1.38731 0.18283,1.38731 -0.33083,0.39863 -0.33084,0.39863 h -1.01348 -1.01349 l -0.60776,0.23425 -0.60775,0.23425 -1.49268,0.43169 -1.49268,0.43168 -0.35012,0.42189 -0.35013,0.42188 2.23968,-0.14084 2.23967,-0.14084 1.4552,-0.33923 z"
           id="path1605"
           sodipodi:nodetypes="cccccccccccccccccccccccccccccccccccccccccccccccccccccccccccccccccccccccccccccccccccccccccccccccccccccccccccccccccccccccccccccccccccccccccccccccccccccccccccccccccccccccccccccccccccccccccccccccccccccccccccccccccccccccccccccccccccccccccccccccccccccccccccccccccccccccccccccc" /><path
           style="fill:#dc2626;fill-opacity:1;stroke-width:0.450833"
           d="m 101.20056,110.99541 0.35012,-0.42188 1.49268,-0.43169 1.49268,-0.43168 0.60775,-0.23426 0.60776,-0.23425 h 1.01349 1.01348 l 0.33084,-0.39863 0.33083,-0.39863 -0.18283,-1.3873 -0.18284,-1.38731 -0.51011,-1.55784 -0.51011,-1.55784 -0.90694,-1.61716 -0.90694,-1.617161 -0.74906,-0.68875 -0.74907,-0.68876 -1.5875,-0.85049 -1.5875,-0.8505 -2.537426,-1.01254 -2.53742,-1.01255 -2.48966,-1.53206 -2.48966,-1.53205 -1.45521,-1.143061 -1.45521,-1.143061 -1.92044,-1.652254 -1.92044,-1.652256 -0.56126,-1.146596 -0.56127,-1.146596 0.13114,-2.557571 0.13114,-2.55757 0.44447,-2.248959 0.44447,-2.248958 0.38474,-1.226135 0.38474,-1.226137 v -0.787524 -0.787527 l -0.98104,-1.489702 -0.98105,-1.489702 -0.80489,-0.244155 -0.80489,-0.244155 -2.18281,-0.319722 -2.18282,-0.319723 V 65.209883 64.89905 l 0.99219,-0.962612 0.99219,-0.962612 1.54996,-0.877023 1.54996,-0.877022 0.54761,-1.684316 0.54761,-1.684314 1.20972,-1.228532 1.20972,-1.228531 1.5875,-0.824056 1.5875,-0.824055 1.47306,-0.162338 1.47307,-0.162338 1.76918,0.490578 1.76917,0.490577 1.08296,0.750488 1.08295,0.750485 1.51935,1.467551 1.519336,1.467551 0.7323,1.164212 0.7323,1.164211 1.00052,2.672247 1.00051,2.672246 0.33753,2.49092 0.33752,2.490917 0.45383,0.4195 0.45383,0.419497 2.164,1.322916 2.16399,1.322917 1.06661,0.79375 1.0666,0.79375 0.85663,0.661458 0.85663,0.661458 1.96385,1.486879 1.96385,1.486879 1.95085,1.753989 1.95085,1.753989 2.25172,1.653924 2.25172,1.653923 1.91274,1.719792 1.91273,1.719791 1.85121,1.406033 1.85121,1.40603 1.01687,1.04136 1.01686,1.04137 -0.25213,-0.004 -0.25214,-0.004 -2.08402,-0.52511 -2.08402,-0.5251 h -2.9984 -2.9984 l -2.06133,0.27084 -2.06132,0.27084 -1.85209,0.29175 -1.85208,0.29175 -1.53697,0.53689 -1.53697,0.53688 -0.51183,1.00328 -0.51183,1.00327 -0.37446,2.064441 -0.37447,2.06443 -0.28871,1.92314 -0.28872,1.92314 v 1.02103 1.02103 l 0.35384,0.29365 0.35383,0.29366 2.09356,0.28687 2.09356,0.28687 0.66146,0.43493 0.66146,0.43494 -0.51002,0.10372 -0.51002,0.10372 -2.00352,-0.49147 -2.00352,-0.49145 -2.11667,0.0124 -2.11667,0.0124 -1.45521,0.33923 -1.4552,0.33923 -2.23967,0.14084 -2.23968,0.14084 z"
           id="path1603"
           sodipodi:nodetypes="ccccccccccccccccccccccccccccccccccccccccccccccccccccccccccccccccccccccccccccccccccccccccccccccccccccccccccccccccccccccccccccccc" /><path
           style="fill:#000000;fill-opacity:1;stroke-width:0.450833"
           d="m 87.999143,63.042703 -0.32235,-0.130659 -0.1721,-0.917366 -0.1721,-0.917369 0.46931,-0.518583 0.46932,-0.518586 h 0.44715 0.44715 l 0.43788,0.483854 0.43788,0.483854 v 0.665763 0.665763 l -0.48385,0.437883 -0.48385,0.437883 -0.37605,-0.02088 -0.37604,-0.02088 -0.32235,-0.130662 z"
           id="path1601"
           sodipodi:nodetypes="cccccccccccccccccc" /></g></g></g></svg>
